<svg width="16" height="16" viewBox="0 0 16 16" fill="none" xmlns="http://www.w3.org/2000/svg">
<path d="M3.55556 12.4444H5.33333V8H3.55556V12.4444ZM10.6667 12.4444H12.4444V3.55556H10.6667V12.4444ZM7.11111 12.4444H8.88889V9.77778H7.11111V12.4444ZM7.11111 8H8.88889V6.22222H7.11111V8ZM1.77778 16C1.28889 16 0.870518 15.8261 0.522667 15.4782C0.174815 15.1304 0.000592593 14.7117 0 14.2222V1.77778C0 1.28889 0.174222 0.870518 0.522667 0.522667C0.871111 0.174815 1.28948 0.000592593 1.77778 0H14.2222C14.7111 0 15.1298 0.174222 15.4782 0.522667C15.8267 0.871111 16.0006 1.28948 16 1.77778V14.2222C16 14.7111 15.8261 15.1298 15.4782 15.4782C15.1304 15.8267 14.7117 16.0006 14.2222 16H1.77778ZM1.77778 14.2222H14.2222V1.77778H1.77778V14.2222Z" fill="currentColor"/>
</svg>
