<svg width="62" height="62" viewBox="0 0 62 62" fill="none" xmlns="http://www.w3.org/2000/svg">
<rect x="0.25" y="0.25" width="61.2544" height="61.2544" rx="29.75" fill="#FFF0E6" stroke="#FE791B" stroke-width="0.5"/>
<g clip-path="url(#clip0_983_23362)">
<path d="M32.6192 30.503L40.7679 22.3543C40.9121 22.205 40.9919 22.0051 40.9901 21.7975C40.9883 21.5899 40.905 21.3914 40.7582 21.2446C40.6114 21.0978 40.4129 21.0145 40.2053 21.0127C39.9977 21.0109 39.7978 21.0907 39.6485 21.2349L31.4998 29.3836L23.3512 21.2349C23.2019 21.0907 23.0019 21.0109 22.7943 21.0127C22.5868 21.0145 22.3882 21.0978 22.2414 21.2446C22.0947 21.3914 22.0114 21.5899 22.0096 21.7975C22.0078 22.0051 22.0876 22.205 22.2318 22.3543L30.3804 30.503L22.2318 38.6516C22.0834 38.8001 22 39.0014 22 39.2113C22 39.4212 22.0834 39.6226 22.2318 39.771C22.3802 39.9194 22.5816 40.0028 22.7915 40.0028C23.0014 40.0028 23.2027 39.9194 23.3512 39.771L31.4998 31.6224L39.6485 39.771C39.7969 39.9194 39.9982 40.0028 40.2082 40.0028C40.4181 40.0028 40.6194 39.9194 40.7679 39.771C40.9163 39.6226 40.9997 39.4212 40.9997 39.2113C40.9997 39.0014 40.9163 38.8001 40.7679 38.6516L32.6192 30.503Z" fill="#FE791B"/>
</g>
<defs>
<clipPath id="clip0_983_23362">
<rect width="19" height="19" fill="white" transform="translate(22 21)"/>
</clipPath>
</defs>
</svg>
