<svg width="9" height="7" viewBox="0 0 9 7" fill="none" xmlns="http://www.w3.org/2000/svg">
<path fill-rule="evenodd" clip-rule="evenodd" d="M5.17317 6.1959C4.99611 6.39062 4.75609 6.5 4.50584 6.5C4.25559 6.5 4.01557 6.39062 3.8385 6.1959L0.276457 2.27507C0.0993854 2.08 -5.90064e-05 1.81547 2.62674e-08 1.53967C5.90589e-05 1.26387 0.0996165 0.999386 0.276771 0.80441C0.453926 0.609435 0.694166 0.499935 0.944642 0.5C1.19512 0.500065 1.43531 0.609689 1.61238 0.804757L4.50584 3.99078L7.39929 0.804757C7.57732 0.61525 7.81581 0.510316 8.06342 0.512556C8.31102 0.514795 8.54792 0.624029 8.72309 0.816731C8.89827 1.00943 8.99769 1.27018 8.99996 1.54282C9.00223 1.81546 8.90716 2.07817 8.73522 2.27438L5.17317 6.1959Z" fill="#9B9B9B"/>
</svg>
