<svg width="16" height="16" viewBox="0 0 16 16" fill="currentColor" xmlns="http://www.w3.org/2000/svg">
<path d="M8 0C12.4184 0 16 3.5816 16 8C16 12.4184 12.4184 16 8 16C3.5816 16 0 12.4184 0 8C0 3.5816 3.5816 0 8 0ZM8.5336 1.0872V1.9152C8.5336 2.05672 8.47738 2.19244 8.37731 2.29251C8.27724 2.39258 8.14152 2.4488 8 2.4488C7.85848 2.4488 7.72276 2.39258 7.62269 2.29251C7.52262 2.19244 7.4664 2.05672 7.4664 1.9152V1.0872C6.42363 1.16544 5.41242 1.48035 4.5096 2.008L4.9272 2.4752C5.01751 2.58132 5.06272 2.71855 5.05318 2.85757C5.04364 2.99658 4.98009 3.12635 4.87613 3.21913C4.77217 3.31192 4.63604 3.36035 4.49684 3.35408C4.35763 3.34782 4.2264 3.28735 4.1312 3.1856L3.6272 2.62C3.07633 3.06769 2.59719 3.59701 2.2064 4.1896L2.8808 4.5944C2.99641 4.66984 3.07829 4.78715 3.10924 4.92168C3.14018 5.05622 3.11778 5.19751 3.04674 5.31588C2.9757 5.43425 2.86155 5.52047 2.72827 5.55645C2.59499 5.59242 2.45295 5.57534 2.332 5.5088L1.6896 5.124C1.40102 5.75583 1.20979 6.42771 1.1224 7.1168H1.848C1.91807 7.1168 1.98746 7.1306 2.0522 7.15742C2.11694 7.18423 2.17576 7.22354 2.22531 7.27309C2.27486 7.32264 2.31417 7.38146 2.34098 7.4462C2.3678 7.51094 2.3816 7.58033 2.3816 7.6504C2.3816 7.72047 2.3678 7.78986 2.34098 7.8546C2.31417 7.91934 2.27486 7.97816 2.22531 8.02771C2.17576 8.07726 2.11694 8.11657 2.0522 8.14338C1.98746 8.1702 1.91807 8.184 1.848 8.184L1.0696 8.1832V8.208C1.09464 9.10861 1.29632 9.99553 1.6632 10.8184L2.332 10.3712C2.44967 10.2957 2.59229 10.2693 2.72917 10.2978C2.86606 10.3264 2.98628 10.4075 3.06397 10.5238C3.14165 10.64 3.1706 10.7821 3.14457 10.9195C3.11854 11.0569 3.03963 11.1786 2.9248 11.2584L2.1736 11.76C2.80175 12.7342 3.66428 13.5352 4.6822 14.0896C5.70011 14.6441 6.84088 14.9342 8 14.9336C9.20119 14.9344 10.382 14.6229 11.4264 14.0296C12.4709 13.4364 13.3431 12.5817 13.9576 11.5496L13.052 10.944C12.9396 10.8633 12.8629 10.7421 12.8382 10.606C12.8134 10.4699 12.8425 10.3294 12.9193 10.2143C12.9961 10.0992 13.1146 10.0185 13.2498 9.98909C13.385 9.9597 13.5264 9.98398 13.644 10.0568L14.4352 10.5856C14.7431 9.82098 14.9111 9.00725 14.9312 8.1832H14.064C13.9262 8.17786 13.7957 8.11935 13.7001 8.01994C13.6045 7.92053 13.5511 7.78794 13.5511 7.65C13.5511 7.51206 13.6045 7.37947 13.7001 7.28006C13.7957 7.18065 13.9262 7.12214 14.064 7.1168H14.8776C14.8019 6.52125 14.6486 5.93816 14.4216 5.3824L13.6616 5.776C13.5991 5.81171 13.5301 5.83441 13.4586 5.84273C13.3871 5.85106 13.3147 5.84484 13.2457 5.82445C13.1766 5.80406 13.1125 5.76992 13.057 5.72409C13.0015 5.67825 12.9559 5.62167 12.9228 5.55774C12.8898 5.49381 12.87 5.42385 12.8647 5.35208C12.8594 5.28031 12.8686 5.20821 12.8919 5.14012C12.9152 5.07202 12.952 5.00934 13.0001 4.95584C13.0483 4.90234 13.1067 4.85912 13.172 4.8288L13.944 4.4288C13.5513 3.77676 13.0543 3.19355 12.4728 2.7024L11.9912 3.3336C11.9487 3.38928 11.8956 3.43604 11.8349 3.47119C11.7743 3.50635 11.7074 3.52923 11.6379 3.53852C11.5685 3.5478 11.4978 3.54332 11.4301 3.52531C11.3624 3.50731 11.2989 3.47615 11.2432 3.4336C11.1875 3.39105 11.1408 3.33795 11.1056 3.27734C11.0704 3.21672 11.0476 3.14977 11.0383 3.08031C11.029 3.01085 11.0335 2.94025 11.0515 2.87252C11.0695 2.8048 11.1007 2.74128 11.1432 2.6856L11.6072 2.0776C10.6757 1.5083 9.6222 1.16881 8.5336 1.0872ZM11.132 5.4552C11.2203 5.56567 11.2611 5.70666 11.2455 5.84722C11.2299 5.98777 11.1592 6.11638 11.0488 6.2048L9.4168 7.5096L9.4224 7.6056C9.4224 8.1592 8.9992 8.6152 8.4584 8.6664L8.3552 8.6712C8.19582 8.67109 8.03849 8.63526 7.89478 8.56634C7.75107 8.49742 7.62463 8.39716 7.52477 8.27294C7.42491 8.14872 7.35417 8.00369 7.31774 7.84853C7.28131 7.69337 7.28013 7.53201 7.31428 7.37633C7.34842 7.22065 7.41703 7.0746 7.51506 6.94893C7.61309 6.82325 7.73804 6.72115 7.88072 6.65013C8.0234 6.57911 8.18019 6.54097 8.33956 6.53853C8.49892 6.53608 8.65681 6.56939 8.8016 6.636L10.3824 5.372C10.4929 5.28371 10.6339 5.24287 10.7744 5.25848C10.915 5.27408 11.0436 5.34483 11.132 5.4552Z" fill="currentColor"/>
</svg>
