<svg width="29" height="30" viewBox="0 0 29 30" fill="none" xmlns="http://www.w3.org/2000/svg">
<path opacity="0.7" d="M25.128 29.976C26.568 27.544 27.56 25.016 28.104 22.392C28.616 19.736 28.664 17.128 28.248 14.568C27.832 11.976 26.968 9.512 25.656 7.17599C24.312 4.80799 22.536 2.67999 20.328 0.791994L17.112 2.75999C16.536 3.112 16.28 3.56 16.344 4.10399C16.408 4.648 16.6 5.096 16.92 5.44799C17.656 6.34399 18.328 7.48 18.936 8.856C19.544 10.232 19.96 11.752 20.184 13.416C20.376 15.08 20.312 16.824 19.992 18.648C19.672 20.472 18.984 22.264 17.928 24.024C17.416 24.824 17.272 25.544 17.496 26.184C17.688 26.792 18.152 27.224 18.888 27.48L25.128 29.976ZM9.816 29.976C11.256 27.544 12.248 25.016 12.792 22.392C13.304 19.736 13.352 17.128 12.936 14.568C12.52 11.976 11.656 9.512 10.344 7.17599C9 4.80799 7.224 2.67999 5.016 0.791994L1.8 2.75999C1.224 3.112 0.967999 3.56 1.032 4.10399C1.096 4.648 1.288 5.096 1.608 5.44799C2.344 6.34399 3.016 7.48 3.624 8.856C4.232 10.232 4.648 11.752 4.872 13.416C5.064 15.08 5 16.824 4.68 18.648C4.36 20.472 3.672 22.264 2.616 24.024C2.104 24.824 1.96 25.544 2.184 26.184C2.376 26.792 2.84 27.224 3.576 27.48L9.816 29.976Z" fill="#202224"/>
</svg>
