<svg width="240" height="153" viewBox="0 0 240 153" fill="none" xmlns="http://www.w3.org/2000/svg">
<path d="M204.832 149.293C224.218 149.293 239.934 146.11 239.934 142.183C239.934 138.257 224.218 135.074 204.832 135.074C185.446 135.074 169.73 138.257 169.73 142.183C169.73 146.11 185.446 149.293 204.832 149.293Z" fill="#F7F7F7"/>
<path d="M115.66 152.999C164.536 152.999 204.158 149.625 204.158 145.463C204.158 141.301 164.536 137.927 115.66 137.927C66.7841 137.927 27.1621 141.301 27.1621 145.463C27.1621 149.625 66.7841 152.999 115.66 152.999Z" fill="#F7F7F7"/>
<path d="M85.2439 46.5726C82.6759 46.5726 80.1899 45.6717 78.2179 44.0262L72.7476 39.4614C70.7789 37.8186 68.4404 36.9385 66.0448 36.9385H38.8947C36.4309 36.9385 34.4336 38.9358 34.4336 41.3996V46.5726V139.691C34.4336 143.942 37.88 147.389 42.1313 147.389H177.474C180.781 147.389 183.461 144.708 183.461 141.401V52.5603C183.461 49.2537 180.781 46.5731 177.474 46.5731H85.2439V46.5726Z" fill="#CFCFCF"/>
<path d="M183.462 141.903C183.462 141.903 174.251 124.625 173.33 122.641L148.157 71.3572C147.524 69.9943 146.158 69.1224 144.655 69.1224H51.1104C47.7097 69.1224 42.7912 67.34 40.1798 65.1611L36.4051 62.0112C34.4364 60.3684 32.098 59.4883 29.7023 59.4883H3.86447C1.11429 59.4883 -0.753899 62.2823 0.296841 64.8236L31.5406 140.39C33.2921 144.625 37.4236 147.388 42.0069 147.388H181.772C182.683 147.388 183.524 146.607 183.524 145.696L183.462 141.903Z" fill="#E8E8E8"/>
<path d="M145.412 73.999L182.351 145.804" stroke="#9B9B9B" stroke-width="0.888646" stroke-miterlimit="10" stroke-linejoin="round"/>
<path d="M130.191 86.3723H98.3721C97.5044 86.3723 96.6971 85.9357 96.231 85.2151C95.1558 83.5516 96.3693 81.374 98.3721 81.374H130.191C131.058 81.374 131.866 81.8106 132.332 82.5313C133.407 84.1952 132.194 86.3723 130.191 86.3723Z" stroke="#9B9B9B" stroke-width="0.888646" stroke-miterlimit="10" stroke-linejoin="round"/>
<path d="M70.6699 111.053L95.4437 125.812" stroke="#9B9B9B" stroke-width="0.888646" stroke-miterlimit="10" stroke-linecap="round" stroke-linejoin="round"/>
<path d="M90.9244 110.342L75.3574 125.902" stroke="#9B9B9B" stroke-width="0.888646" stroke-miterlimit="10" stroke-linecap="round" stroke-linejoin="round"/>
<path d="M100.7 123.271C102.772 115.779 96.4142 107.483 86.4987 104.74C76.5832 101.997 66.8652 105.847 64.793 113.338C62.7209 120.829 69.0791 129.126 78.9946 131.869C88.9101 134.611 98.628 130.762 100.7 123.271Z" stroke="#9B9B9B" stroke-width="0.888646" stroke-miterlimit="10" stroke-linecap="round" stroke-linejoin="round"/>
<path d="M40.6018 0.00676727C49.7403 0.255736 57.3016 7.57542 57.8277 16.7024C58.137 22.0691 56.0572 26.9525 52.5569 30.398C52.0396 30.907 51.7994 31.6327 51.9202 32.3482L53.2346 40.1267L45.1469 35.4143C44.6863 35.1459 44.1436 35.0473 43.6208 35.1528C41.6438 35.5516 39.5492 35.625 37.3901 35.2981C29.4005 34.0878 23.1671 27.4735 22.4303 19.4263C21.4483 8.70085 30.0151 -0.281852 40.6018 0.00676727Z" fill="#FFF0E6"/>
<path d="M39.297 23.8964L39.2472 19.6524C39.8664 19.5017 40.4312 19.3053 40.942 19.0623C41.4524 18.8198 41.9005 18.5395 42.2855 18.2209C42.6705 17.9032 42.9928 17.5473 43.2528 17.1535C43.5124 16.7603 43.7083 16.3375 43.8429 15.8856C43.9766 15.4338 44.044 14.9566 44.044 14.4541C44.044 13.7344 43.8678 13.0562 43.5161 12.4199C43.1647 11.7841 42.6622 11.2691 42.0093 10.8754C41.3565 10.4821 40.5782 10.2852 39.6741 10.2852C38.7031 10.2852 37.8032 10.5536 36.9746 11.0888C36.1457 11.625 35.5136 12.537 35.0788 13.8261L34.627 13.5246C35.0119 12.3028 35.6565 11.365 36.5606 10.7122C37.4647 10.0588 38.4938 9.73242 39.6492 9.73242C40.6372 9.73242 41.5031 9.9422 42.2486 10.3604C42.9932 10.779 43.5751 11.3443 43.9937 12.0557C44.4119 12.7671 44.6217 13.5665 44.6217 14.4541C44.6217 15.124 44.5087 15.7515 44.2828 16.3375C44.0569 16.9235 43.7383 17.4592 43.3284 17.9447C42.9181 18.4307 42.4201 18.853 41.8341 19.2131C41.2481 19.5736 40.587 19.8452 39.8502 20.0291L39.8004 23.8964H39.297ZM38.9959 27.0606C38.9959 26.843 39.0544 26.6632 39.1716 26.5207C39.2887 26.3787 39.4482 26.3073 39.6487 26.3073C39.883 26.3073 40.0503 26.3746 40.1513 26.5083C40.2518 26.6425 40.3016 26.8264 40.3016 27.0606C40.3016 27.2617 40.2472 27.4373 40.1384 27.5881C40.0291 27.7388 39.8659 27.814 39.6483 27.814C39.4302 27.814 39.2675 27.7467 39.1582 27.613C39.0498 27.4793 38.9959 27.2953 38.9959 27.0606Z" fill="#9B9B9B"/>
</svg>
