<svg width="21" height="14" viewBox="0 0 21 14" fill="none" xmlns="http://www.w3.org/2000/svg">
<path d="M10.2518 12.7025C13.1739 12.7025 15.8006 11.0077 17.6143 9.42778C19.2681 7.98721 19.2681 5.52588 17.6143 4.08531C15.8006 2.50536 13.1739 0.810547 10.2518 0.810547C7.32968 0.810547 4.70303 2.50536 2.88926 4.08531C1.2355 5.52588 1.2355 7.98721 2.88926 9.42778C4.70303 11.0077 7.32968 12.7025 10.2518 12.7025Z" stroke="currentColor" stroke-width="1.4865" stroke-linejoin="round"/>
<path d="M10.2509 9.2343C10.908 9.2343 11.5382 8.97328 12.0028 8.50865C12.4674 8.04403 12.7284 7.41387 12.7284 6.7568C12.7284 6.09972 12.4674 5.46956 12.0028 5.00494C11.5382 4.54032 10.908 4.2793 10.2509 4.2793C9.59386 4.2793 8.9637 4.54032 8.49908 5.00494C8.03446 5.46956 7.77344 6.09972 7.77344 6.7568C7.77344 7.41387 8.03446 8.04403 8.49908 8.50865C8.9637 8.97328 9.59386 9.2343 10.2509 9.2343Z" stroke="currentColor" stroke-width="1.4865" stroke-linejoin="round"/>
</svg>
