<svg width="25" height="25" viewBox="0 0 25 25" fill="currentColor" xmlns="http://www.w3.org/2000/svg">
<path d="M12.5002 2.5C10.6437 2.5 8.86318 3.2375 7.55043 4.55025C6.23767 5.86301 5.50017 7.64348 5.50017 9.5V13.028C5.50032 13.1831 5.46437 13.3362 5.39517 13.475L3.67817 16.908C3.5943 17.0757 3.5547 17.2621 3.56312 17.4494C3.57155 17.6368 3.62773 17.8188 3.72632 17.9783C3.82491 18.1379 3.96265 18.2695 4.12644 18.3608C4.29024 18.4521 4.47465 18.5 4.66217 18.5H20.3382C20.5257 18.5 20.7101 18.4521 20.8739 18.3608C21.0377 18.2695 21.1754 18.1379 21.274 17.9783C21.3726 17.8188 21.4288 17.6368 21.4372 17.4494C21.4457 17.2621 21.406 17.0757 21.3222 16.908L19.6062 13.475C19.5366 13.3362 19.5003 13.1832 19.5002 13.028V9.5C19.5002 7.64348 18.7627 5.86301 17.4499 4.55025C16.1372 3.2375 14.3567 2.5 12.5002 2.5ZM12.5002 21.5C11.8795 21.5003 11.274 21.3081 10.7672 20.9499C10.2603 20.5917 9.87706 20.0852 9.67017 19.5H15.3302C15.1233 20.0852 14.74 20.5917 14.2332 20.9499C13.7263 21.3081 13.1208 21.5003 12.5002 21.5Z" fill="#828282"/>
</svg>
