<svg width="42" height="42" viewBox="0 0 42 42" fill="none" xmlns="http://www.w3.org/2000/svg">
<rect x="2.60039" y="2.7" width="37.2" height="37.2" rx="18.6" fill="#FE791B"/>
<rect x="2.60039" y="2.7" width="37.2" height="37.2" rx="18.6" stroke="#FFF0E6" stroke-width="3.6"/>
<path fill-rule="evenodd" clip-rule="evenodd" d="M30.416 29.7004H11.3848C10.841 29.7004 10.4004 29.2665 10.4004 28.7312V16.8516C10.4004 16.3165 10.841 15.8823 11.3848 15.8823H15.5889L17.1654 13.2869C17.3452 13.0534 17.6268 12.9004 17.9473 12.9004H23.8535C24.13 12.9004 24.3787 13.0136 24.5578 13.1941L24.5585 13.1932L26.2302 15.8823H30.416C30.9598 15.8823 31.4004 16.3165 31.4004 16.8516V28.7312C31.4004 29.2665 30.9598 29.7004 30.416 29.7004ZM20.9 17.87C18.0282 17.87 15.7003 20.1624 15.7003 22.9897C15.7003 25.8174 18.0282 28.1095 20.9 28.1095C23.7718 28.1095 26.0997 25.8174 26.0997 22.9897C26.0997 20.1624 23.7718 17.87 20.9 17.87ZM17.8912 22.9897C17.8912 24.626 19.2385 25.9527 20.9004 25.9527C22.5624 25.9527 23.9096 24.626 23.9096 22.9897C23.9096 21.3532 22.5624 20.0268 20.9004 20.0268C19.2385 20.0268 17.8912 21.3532 17.8912 22.9897Z" fill="#FFF0E6"/>
</svg>
