<svg width="93" height="93" viewBox="0 0 93 93" fill="none" xmlns="http://www.w3.org/2000/svg">
<circle cx="46.5" cy="46.5" r="46.5" fill="#ECECEC"/>
<mask id="mask0_680_13908" style="mask-type:alpha" maskUnits="userSpaceOnUse" x="0" y="0" width="93" height="93">
<circle cx="46.5" cy="46.5" r="46.5" fill="#D9D9D9"/>
</mask>
<g mask="url(#mask0_680_13908)">
<path d="M58.7367 32.625C61.555 35.1105 63.5495 38.3954 64.455 42.0424C65.3604 45.6894 65.1337 49.5257 63.8051 53.0407C62.4766 56.5557 60.1091 59.5828 57.0177 61.7192C53.9264 63.8556 50.2577 64.9999 46.5 64.9999C42.7423 64.9999 39.0736 63.8556 35.9823 61.7192C32.8909 59.5828 30.5234 56.5557 29.1949 53.0407C27.8663 49.5257 27.6396 45.6894 28.545 42.0424C29.4505 38.3954 31.445 35.1105 34.2633 32.625M46.5 28V46.5" stroke="#696969" stroke-width="3.46875" stroke-linecap="round" stroke-linejoin="round"/>
</g>
</svg>
