<svg width="16" height="16" viewBox="0 0 16 16" fill="none" xmlns="http://www.w3.org/2000/svg">
<path fill-rule="evenodd" clip-rule="evenodd" d="M8.00013 5.20898C7.21843 5.20898 6.46875 5.503 5.91601 6.02636C5.36326 6.54972 5.05273 7.25954 5.05273 7.99968C5.05273 8.73982 5.36326 9.44965 5.91601 9.973C6.46875 10.4964 7.21843 10.7904 8.00013 10.7904C8.78182 10.7904 9.53151 10.4964 10.0842 9.973C10.637 9.44965 10.9475 8.73982 10.9475 7.99968C10.9475 7.25954 10.637 6.54972 10.0842 6.02636C9.53151 5.503 8.78182 5.20898 8.00013 5.20898ZM6.23169 7.99968C6.23169 7.5556 6.41801 7.1297 6.74965 6.81569C7.0813 6.50168 7.53111 6.32526 8.00013 6.32526C8.46915 6.32526 8.91895 6.50168 9.2506 6.81569C9.58225 7.1297 9.76856 7.5556 9.76856 7.99968C9.76856 8.44377 9.58225 8.86966 9.2506 9.18367C8.91895 9.49769 8.46915 9.6741 8.00013 9.6741C7.53111 9.6741 7.0813 9.49769 6.74965 9.18367C6.41801 8.86966 6.23169 8.44377 6.23169 7.99968Z" fill="currentColor"/>
<path fill-rule="evenodd" clip-rule="evenodd" d="M7.98035 0C7.63059 0 7.339 -1.38615e-08 7.10006 0.0148837C6.85579 0.0241982 6.61487 0.0719844 6.38719 0.156279C6.12487 0.259043 5.8865 0.409729 5.6857 0.59973C5.48489 0.789731 5.32559 1.01532 5.21687 1.26363C5.10291 1.52409 5.07226 1.79944 5.05968 2.0986C5.05828 2.20799 5.02762 2.31525 4.97059 2.41038C4.91355 2.50551 4.83198 2.5854 4.7335 2.6426C4.63197 2.69494 4.51809 2.72204 4.40249 2.72139C4.2869 2.72074 4.17336 2.69236 4.0725 2.63888C3.79269 2.49898 3.52546 2.3866 3.22994 2.3494C2.94852 2.31435 2.66256 2.33212 2.3884 2.40171C2.11423 2.4713 1.85723 2.59134 1.63206 2.75498C1.44138 2.8997 1.27749 3.07349 1.14711 3.26921C1.0135 3.45823 0.867308 3.69712 0.692823 3.98363L0.673173 4.01637C0.497902 4.30288 0.352497 4.54177 0.247177 4.74567C0.137141 4.95851 0.0506839 5.16837 0.0192451 5.40056C-0.0557364 5.9386 0.098062 6.48281 0.446814 6.91349C0.628373 7.13749 0.864951 7.30047 1.13218 7.45972C1.23171 7.5156 1.31464 7.59447 1.3732 7.68897C1.43176 7.78346 1.46403 7.89048 1.467 8C1.46403 8.10952 1.43176 8.21654 1.3732 8.31103C1.31464 8.40553 1.23171 8.4844 1.13218 8.54028C0.864951 8.69953 0.629159 8.86251 0.446814 9.08651C0.273992 9.29971 0.147213 9.54305 0.0737153 9.80264C0.000218058 10.0622 -0.018558 10.333 0.0184592 10.5994C0.050684 10.8316 0.136355 11.0415 0.246391 11.2543C0.352497 11.4582 0.497902 11.6971 0.673173 11.9836L0.692823 12.0164C0.867308 12.3029 1.0135 12.5418 1.14711 12.7308C1.28623 12.9265 1.43557 13.1029 1.63206 13.2443C1.85717 13.408 2.11414 13.5282 2.38831 13.5979C2.66248 13.6677 2.94847 13.6855 3.22994 13.6506C3.52546 13.6134 3.79269 13.5018 4.0725 13.3611C4.17327 13.3078 4.28666 13.2795 4.4021 13.2788C4.51755 13.2782 4.63128 13.3052 4.73272 13.3574C4.832 13.4139 4.91428 13.4936 4.97167 13.5888C5.02906 13.6841 5.05964 13.7917 5.06047 13.9014C5.07226 14.2006 5.10291 14.4759 5.21766 14.7364C5.3262 14.9847 5.48534 15.2104 5.68601 15.4006C5.88668 15.5907 6.12494 15.7415 6.38719 15.8445C6.61512 15.9338 6.85091 15.9687 7.10006 15.9844C7.339 16 7.63059 16 7.98035 16H8.01965C8.36941 16 8.661 16 8.89994 15.9851C9.14988 15.9687 9.38488 15.9338 9.61281 15.8437C9.87513 15.741 10.1135 15.5903 10.3143 15.4003C10.5151 15.2103 10.6744 14.9847 10.7831 14.7364C10.8971 14.4759 10.9277 14.2006 10.9403 13.9014C10.9416 13.7919 10.9722 13.6845 11.0292 13.5892C11.0863 13.4939 11.1679 13.4139 11.2665 13.3567C11.3681 13.3044 11.482 13.2775 11.5976 13.2782C11.7132 13.279 11.8267 13.3075 11.9275 13.3611C12.2073 13.501 12.4745 13.6134 12.7701 13.6499C13.3383 13.7209 13.9131 13.5752 14.3679 13.245C14.5644 13.1021 14.7138 12.9265 14.8529 12.7308C14.9865 12.5418 15.1327 12.3029 15.3072 12.0164L15.3268 11.9836C15.5021 11.6971 15.6475 11.4582 15.7528 11.2543C15.8629 11.0415 15.9493 10.8309 15.9808 10.5994C16.0557 10.0614 15.9019 9.51719 15.5532 9.08651C15.3716 8.86251 15.135 8.69953 14.8678 8.54028C14.7683 8.4844 14.6854 8.40553 14.6268 8.31103C14.5682 8.21654 14.536 8.10952 14.533 8C14.533 7.79312 14.6525 7.58772 14.8678 7.45972C15.135 7.30047 15.3708 7.13749 15.5532 6.91349C15.726 6.70029 15.8528 6.45695 15.9263 6.19736C15.9998 5.93777 16.0186 5.66702 15.9815 5.40056C15.9445 5.17179 15.8675 4.95047 15.7536 4.74567C15.6194 4.49844 15.477 4.25522 15.3268 4.01637L15.3072 3.98363C15.1636 3.74108 15.0121 3.50283 14.8529 3.26921C14.7224 3.07376 14.5586 2.90022 14.3679 2.75572C14.1428 2.59196 13.8859 2.47178 13.6117 2.40207C13.3375 2.33235 13.0515 2.31445 12.7701 2.3494C12.4745 2.3866 12.2073 2.49823 11.9275 2.63888C11.8267 2.69222 11.7133 2.72054 11.5979 2.72119C11.4825 2.72184 11.3687 2.6948 11.2673 2.6426C11.1685 2.58558 11.0866 2.50577 11.0293 2.41062C10.972 2.31548 10.9411 2.20813 10.9395 2.0986C10.9277 1.79944 10.8971 1.52409 10.7823 1.26363C10.6738 1.01526 10.5147 0.78956 10.314 0.599432C10.1133 0.409303 9.87506 0.258466 9.61281 0.155535C9.38488 0.0662326 9.14909 0.0312558 8.89994 0.0156279C8.661 2.07923e-08 8.36941 0 8.01965 0H7.98035ZM6.83833 1.18698C6.89885 1.16316 6.99081 1.14158 7.18023 1.12893C7.37437 1.11628 7.62588 1.11628 8 1.11628C8.37412 1.11628 8.62563 1.11628 8.81977 1.12893C9.00919 1.14158 9.10115 1.16316 9.16167 1.18698C9.40296 1.28149 9.59395 1.46233 9.69377 1.69079C9.72521 1.76223 9.75114 1.8746 9.76136 2.14028C9.78494 2.72967 10.1064 3.29749 10.677 3.6093C11.2476 3.92112 11.9275 3.90102 12.4785 3.62567C12.7268 3.5014 12.8424 3.46642 12.9241 3.45674C13.1824 3.42443 13.4436 3.49055 13.6503 3.64056C13.7022 3.67851 13.7682 3.74326 13.8744 3.89209C13.9836 4.0454 14.1094 4.25153 14.2964 4.55814C14.4835 4.86474 14.6084 5.07163 14.6941 5.23684C14.7782 5.39833 14.8042 5.48465 14.812 5.54642C14.8461 5.79093 14.7763 6.03827 14.6179 6.23405C14.5676 6.29581 14.478 6.37321 14.2406 6.5146C13.7124 6.82865 13.354 7.37637 13.354 8C13.354 8.62363 13.7124 9.17135 14.2406 9.4854C14.478 9.62679 14.5676 9.70419 14.6179 9.76595C14.7766 9.96167 14.8458 10.2087 14.812 10.4536C14.8042 10.5153 14.7774 10.6024 14.6941 10.7632C14.6084 10.9291 14.4835 11.1353 14.2964 11.4419C14.1094 11.7485 13.9828 11.9546 13.8744 12.1079C13.7682 12.2567 13.7022 12.3215 13.6503 12.3594C13.4436 12.5094 13.1824 12.5756 12.9241 12.5433C12.8424 12.5336 12.7276 12.4986 12.4785 12.3743C11.9283 12.099 11.2476 12.0781 10.677 12.39C10.1064 12.7018 9.78494 13.2703 9.76136 13.8597C9.75114 14.1254 9.72521 14.2378 9.69377 14.3092C9.64439 14.4222 9.57198 14.5248 9.48068 14.6113C9.38938 14.6977 9.28097 14.7663 9.16167 14.813C9.10115 14.8368 9.00919 14.8584 8.81977 14.8711C8.62563 14.8837 8.37412 14.8837 8 14.8837C7.62588 14.8837 7.37437 14.8837 7.18023 14.8711C6.99081 14.8584 6.89885 14.8368 6.83833 14.813C6.71903 14.7663 6.61062 14.6977 6.51932 14.6113C6.42802 14.5248 6.35561 14.4222 6.30623 14.3092C6.27479 14.2378 6.24886 14.1254 6.23864 13.8597C6.21506 13.2703 5.8936 12.7025 5.32298 12.3907C4.75237 12.0789 4.0725 12.099 3.52153 12.3743C3.27317 12.4986 3.15763 12.5336 3.07589 12.5433C2.81765 12.5756 2.55642 12.5094 2.34965 12.3594C2.29778 12.3215 2.23176 12.2567 2.12565 12.1079C1.97779 11.89 1.83704 11.6679 1.70358 11.4419C1.51652 11.1353 1.39155 10.9284 1.30588 10.7632C1.22178 10.6017 1.19584 10.5153 1.18798 10.4536C1.15386 10.2091 1.22369 9.96173 1.38212 9.76595C1.43242 9.70419 1.52202 9.62679 1.75939 9.4854C2.28756 9.17135 2.64596 8.62363 2.64596 8C2.64596 7.37637 2.28756 6.82865 1.75939 6.5146C1.52202 6.37321 1.43242 6.29581 1.38212 6.23405C1.22369 6.03827 1.15386 5.79093 1.18798 5.54642C1.19584 5.48465 1.22257 5.39758 1.30588 5.23684C1.39155 5.07088 1.51652 4.86474 1.70358 4.55814C1.89064 4.25153 2.01718 4.0454 2.12565 3.89209C2.23176 3.74326 2.29778 3.67851 2.34965 3.64056C2.55642 3.49055 2.81765 3.42443 3.07589 3.45674C3.15763 3.46642 3.27238 3.5014 3.52153 3.62567C4.07171 3.90102 4.75237 3.92186 5.32298 3.6093C5.8936 3.29749 6.21506 2.72967 6.23864 2.14028C6.24886 1.8746 6.27479 1.76223 6.30623 1.69079C6.40605 1.46233 6.59704 1.28149 6.83833 1.18698Z" fill="currentColor"/>
</svg>
