<svg width="16" height="16" viewBox="0 0 16 16" fill="none" xmlns="http://www.w3.org/2000/svg">
<path d="M12.6673 7.99967C12.6673 8.17649 12.5971 8.34605 12.4721 8.47108C12.347 8.5961 12.1775 8.66634 12.0007 8.66634C11.8238 8.66634 11.6543 8.5961 11.5292 8.47108C11.4042 8.34605 11.334 8.17649 11.334 7.99967C11.334 7.82286 11.4042 7.65329 11.5292 7.52827C11.6543 7.40325 11.8238 7.33301 12.0007 7.33301C12.1775 7.33301 12.347 7.40325 12.4721 7.52827C12.5971 7.65329 12.6673 7.82286 12.6673 7.99967Z" fill="currentColor"/>
<path fill-rule="evenodd" clip-rule="evenodd" d="M6.62998 2.16699H8.70465C9.92998 2.16699 10.9007 2.16699 11.66 2.26899C12.4413 2.37433 13.074 2.59566 13.5733 3.09433C14.1893 3.71099 14.386 4.53633 14.4573 5.60766C14.842 5.77633 15.1327 6.13433 15.164 6.58766C15.1673 6.62832 15.1673 6.67166 15.1673 6.71166V9.28899C15.1673 9.32899 15.1673 9.37232 15.1647 9.41232C15.1327 9.86566 14.842 10.2243 14.4573 10.3937C14.386 11.4643 14.1893 12.2897 13.5733 12.9063C13.074 13.405 12.4413 13.6263 11.66 13.7317C10.9 13.8337 9.92998 13.8337 8.70465 13.8337H6.62998C5.40465 13.8337 4.43398 13.8337 3.67465 13.7317C2.89332 13.6263 2.26065 13.405 1.76132 12.9063C1.26265 12.407 1.04132 11.7743 0.935984 10.993C0.833984 10.233 0.833984 9.26299 0.833984 8.03766V7.96299C0.833984 6.73766 0.833984 5.76699 0.935984 5.00766C1.04132 4.22633 1.26265 3.59366 1.76132 3.09433C2.26065 2.59566 2.89332 2.37433 3.67465 2.26899C4.43465 2.16699 5.40465 2.16699 6.62998 2.16699ZM13.446 10.5003H12.154C10.724 10.5003 9.49998 9.41499 9.49998 8.00033C9.49998 6.58566 10.724 5.50033 12.1533 5.50033H13.4453C13.3693 4.60633 13.198 4.13366 12.8653 3.80166C12.5833 3.51966 12.1967 3.35033 11.526 3.26033C10.8413 3.16833 9.93798 3.16699 8.66665 3.16699H6.66665C5.39532 3.16699 4.49265 3.16833 3.80665 3.26033C3.13665 3.35033 2.74998 3.51966 2.46798 3.80166C2.18598 4.08366 2.01732 4.47033 1.92732 5.14033C1.83532 5.82566 1.83398 6.72832 1.83398 7.99966C1.83398 9.27099 1.83532 10.1743 1.92732 10.8597C2.01732 11.5297 2.18665 11.9163 2.46865 12.1983C2.75065 12.4803 3.13732 12.6497 3.80798 12.7397C4.49332 12.8317 5.39598 12.833 6.66732 12.833H8.66732C9.93865 12.833 10.842 12.8317 11.5273 12.7397C12.1973 12.6497 12.584 12.4803 12.866 12.1983C13.1987 11.8663 13.37 11.3943 13.446 10.4997M3.50065 5.33366C3.50065 5.20105 3.55333 5.07387 3.6471 4.98011C3.74087 4.88634 3.86804 4.83366 4.00065 4.83366H6.66732C6.79993 4.83366 6.9271 4.88634 7.02087 4.98011C7.11464 5.07387 7.16732 5.20105 7.16732 5.33366C7.16732 5.46627 7.11464 5.59344 7.02087 5.68721C6.9271 5.78098 6.79993 5.83366 6.66732 5.83366H4.00065C3.86804 5.83366 3.74087 5.78098 3.6471 5.68721C3.55333 5.59344 3.50065 5.46627 3.50065 5.33366ZM13.95 6.50033H12.154C11.2047 6.50033 10.5 7.20633 10.5 8.00033C10.5 8.79433 11.2047 9.50033 12.1533 9.50033H13.9653C14.1027 9.49166 14.162 9.39899 14.1667 9.34299V6.65766C14.162 6.60166 14.1027 6.50899 13.9653 6.50099L13.95 6.50033Z" fill="currentColor"/>
</svg>
