<svg width="60" height="60" viewBox="0 0 60 60" fill="none" xmlns="http://www.w3.org/2000/svg">
<path opacity="0.21" fill-rule="evenodd" clip-rule="evenodd" d="M0 30V37C0 49.7025 10.2975 60 23 60H30H37C49.7025 60 60 49.7025 60 37V30V23C60 10.2975 49.7025 0 37 0H30H23C10.2975 0 0 10.2975 0 23V30Z" fill="#8280FF"/>
<path d="M19.2727 40.2272H35.1818V42.4999H19.2727C18.67 42.4999 18.0919 42.2605 17.6657 41.8342C17.2394 41.408 17 40.8299 17 40.2272V26.5908H19.2727V40.2272Z" fill="#ABA9FF"/>
<path d="M39.7267 35.6818V25.4545H23.8176V35.6818H39.7267ZM39.7267 19.7727C40.3295 19.7727 40.9076 20.0122 41.3338 20.4384C41.76 20.8646 41.9995 21.4427 41.9995 22.0455V35.6818C41.9995 36.2846 41.76 36.8627 41.3338 37.2889C40.9076 37.7151 40.3295 37.9545 39.7267 37.9545H23.8176C23.2149 37.9545 22.6368 37.7151 22.2106 37.2889C21.7844 36.8627 21.5449 36.2846 21.5449 35.6818V22.0455C21.5449 21.4427 21.7844 20.8646 22.2106 20.4384C22.6368 20.0122 23.2149 19.7727 23.8176 19.7727H24.954V17.5H27.2267V19.7727H36.3176V17.5H38.5904V19.7727H39.7267ZM35.7836 28.9318L30.7381 33.9773L27.6926 30.9318L28.8972 29.7273L30.7381 31.5682L34.579 27.7273L35.7836 28.9318Z" fill="#8280FF"/>
</svg>
