<svg width="60" height="60" viewBox="0 0 60 60" fill="none" xmlns="http://www.w3.org/2000/svg">
<path opacity="0.21" fill-rule="evenodd" clip-rule="evenodd" d="M0 30V37C0 49.7025 10.2975 60 23 60H30H37C49.7025 60 60 49.7025 60 37V30V23C60 10.2975 49.7025 0 37 0H30H23C10.2975 0 0 10.2975 0 23V30Z" fill="#4AD991"/>
<path d="M19.5992 20.4004C18.9627 20.4004 18.3522 20.6532 17.9022 21.1033C17.4521 21.5534 17.1992 22.1639 17.1992 22.8004V34.0004C17.1992 34.6369 17.4521 35.2474 17.9022 35.6974C18.3522 36.1475 18.9627 36.4004 19.5992 36.4004H37.1992C37.8357 36.4004 38.4462 36.1475 38.8963 35.6974C39.3464 35.2474 39.5992 34.6369 39.5992 34.0004V22.8004C39.5992 22.1639 39.3464 21.5534 38.8963 21.1033C38.4462 20.6532 37.8357 20.4004 37.1992 20.4004H19.5992ZM23.5992 22.0004V23.6004C23.5992 24.4491 23.2621 25.263 22.662 25.8631C22.0618 26.4632 21.2479 26.8004 20.3992 26.8004H18.7992V25.2004H20.3992C20.8236 25.2004 21.2305 25.0318 21.5306 24.7318C21.8306 24.4317 21.9992 24.0247 21.9992 23.6004V22.0004H23.5992ZM28.3992 31.2004C27.6566 31.2004 26.9444 30.9054 26.4193 30.3803C25.8942 29.8552 25.5992 29.143 25.5992 28.4004C25.5992 27.6578 25.8942 26.9456 26.4193 26.4205C26.9444 25.8954 27.6566 25.6004 28.3992 25.6004C29.1418 25.6004 29.854 25.8954 30.3791 26.4205C30.9042 26.9456 31.1992 27.6578 31.1992 28.4004C31.1992 29.143 30.9042 29.8552 30.3791 30.3803C29.854 30.9054 29.1418 31.2004 28.3992 31.2004ZM18.7992 31.6004V30.0004H20.3992C21.2479 30.0004 22.0618 30.3375 22.662 30.9376C23.2621 31.5378 23.5992 32.3517 23.5992 33.2004V34.8004H21.9992V33.2004C21.9992 32.776 21.8306 32.3691 21.5306 32.069C21.2305 31.769 20.8236 31.6004 20.3992 31.6004H18.7992ZM36.3992 31.6004C35.9749 31.6004 35.5679 31.769 35.2678 32.069C34.9678 32.3691 34.7992 32.776 34.7992 33.2004V34.8004H33.1992V33.2004C33.1992 32.3517 33.5364 31.5378 34.1365 30.9376C34.7366 30.3375 35.5505 30.0004 36.3992 30.0004H37.9992V31.6004H36.3992ZM36.3992 25.2004H37.9992V26.8004H36.3992C35.5505 26.8004 34.7366 26.4632 34.1365 25.8631C33.5364 25.263 33.1992 24.4491 33.1992 23.6004V22.0004H34.7992V23.6004C34.7992 24.0247 34.9678 24.4317 35.2678 24.7318C35.5679 25.0318 35.9749 25.2004 36.3992 25.2004Z" fill="#4AD991"/>
<path d="M41.2011 34.0003C41.2011 35.0612 40.7797 36.0786 40.0295 36.8288C39.2794 37.5789 38.262 38.0003 37.2011 38.0003H20.5371C20.7026 38.4685 21.0092 38.8737 21.4147 39.1603C21.8202 39.4468 22.3046 39.6006 22.8011 39.6003H37.2011C38.6863 39.6003 40.1107 39.0103 41.1609 37.9601C42.2111 36.9099 42.8011 35.4855 42.8011 34.0003V26.0003C42.8014 25.5038 42.6476 25.0194 42.3611 24.6139C42.0745 24.2085 41.6692 23.9018 41.2011 23.7363V34.0003Z" fill="#91E8BC"/>
</svg>
