<svg viewBox="0 0 59 61" fill="none" xmlns="http://www.w3.org/2000/svg">
<path opacity="0.21" fill-rule="evenodd" clip-rule="evenodd" d="M0 30.5V37.5C0 50.2025 10.2975 60.5 23 60.5H29.5H36C48.7025 60.5 59 50.2025 59 37.5V30.5V23.5C59 10.7975 48.7025 0.5 36 0.5H29.5H23C10.2975 0.5 0 10.7975 0 23.5V30.5Z" fill="#4AD991"/>
<path d="M19.1002 20.9C18.4637 20.9 17.8532 21.1529 17.4031 21.6029C16.9531 22.053 16.7002 22.6635 16.7002 23.3V34.5C16.7002 35.1365 16.9531 35.747 17.4031 36.1971C17.8532 36.6471 18.4637 36.9 19.1002 36.9H36.7002C37.3367 36.9 37.9472 36.6471 38.3973 36.1971C38.8473 35.747 39.1002 35.1365 39.1002 34.5V23.3C39.1002 22.6635 38.8473 22.053 38.3973 21.6029C37.9472 21.1529 37.3367 20.9 36.7002 20.9H19.1002ZM23.1002 22.5V24.1C23.1002 24.9487 22.7631 25.7626 22.1629 26.3627C21.5628 26.9629 20.7489 27.3 19.9002 27.3H18.3002V25.7H19.9002C20.3245 25.7 20.7315 25.5314 21.0316 25.2314C21.3316 24.9313 21.5002 24.5243 21.5002 24.1V22.5H23.1002ZM27.9002 31.7C27.1576 31.7 26.4454 31.405 25.9203 30.8799C25.3952 30.3548 25.1002 29.6426 25.1002 28.9C25.1002 28.1574 25.3952 27.4452 25.9203 26.9201C26.4454 26.395 27.1576 26.1 27.9002 26.1C28.6428 26.1 29.355 26.395 29.8801 26.9201C30.4052 27.4452 30.7002 28.1574 30.7002 28.9C30.7002 29.6426 30.4052 30.3548 29.8801 30.8799C29.355 31.405 28.6428 31.7 27.9002 31.7ZM18.3002 32.1V30.5H19.9002C20.7489 30.5 21.5628 30.8371 22.1629 31.4373C22.7631 32.0374 23.1002 32.8513 23.1002 33.7V35.3H21.5002V33.7C21.5002 33.2757 21.3316 32.8687 21.0316 32.5686C20.7315 32.2686 20.3245 32.1 19.9002 32.1H18.3002ZM35.9002 32.1C35.4758 32.1 35.0689 32.2686 34.7688 32.5686C34.4688 32.8687 34.3002 33.2757 34.3002 33.7V35.3H32.7002V33.7C32.7002 32.8513 33.0373 32.0374 33.6375 31.4373C34.2376 30.8371 35.0515 30.5 35.9002 30.5H37.5002V32.1H35.9002ZM35.9002 25.7H37.5002V27.3H35.9002C35.0515 27.3 34.2376 26.9629 33.6375 26.3627C33.0373 25.7626 32.7002 24.9487 32.7002 24.1V22.5H34.3002V24.1C34.3002 24.5243 34.4688 24.9313 34.7688 25.2314C35.0689 25.5314 35.4758 25.7 35.9002 25.7Z" fill="#4AD991"/>
<path d="M40.7001 34.5004C40.7001 35.5613 40.2787 36.5787 39.5286 37.3288C38.7784 38.079 37.761 38.5004 36.7001 38.5004H20.0361C20.2016 38.9685 20.5083 39.3738 20.9137 39.6603C21.3192 39.9469 21.8036 40.1006 22.3001 40.1004H36.7001C38.1853 40.1004 39.6097 39.5104 40.6599 38.4602C41.7101 37.41 42.3001 35.9856 42.3001 34.5004V26.5004C42.3004 26.0039 42.1466 25.5195 41.8601 25.114C41.5735 24.7085 41.1683 24.4019 40.7001 24.2364V34.5004Z" fill="#91E8BC"/>
</svg>
